<?xml version="1.0" standalone="no"?>
<!DOCTYPE svg PUBLIC "-//W3C//DTD SVG 20010904//EN"
 "http://www.w3.org/TR/2001/REC-SVG-20010904/DTD/svg10.dtd">
<svg version="1.0" xmlns="http://www.w3.org/2000/svg"
 width="700.000000pt" height="700.000000pt" viewBox="0 0 700.000000 700.000000"
 preserveAspectRatio="xMidYMid meet">
<metadata>
Created by potrace 1.14, written by Peter Selinger 2001-2017
</metadata>
<g transform="translate(0.000000,700.000000) scale(0.100000,-0.100000)"
fill="#000000" stroke="none">
<path d="M0 3500 l0 -3500 3500 0 3500 0 0 3500 0 3500 -3500 0 -3500 0 0
-3500z m1699 1560 c58 -271 91 -450 88 -467 -7 -33 -595 -1935 -600 -1939 -2
-2 -69 263 -150 589 -225 907 -557 2249 -557 2253 0 2 253 4 563 4 l563 0 93
-440z m2507 -14 l111 -450 -24 -85 c-26 -96 -416 -1540 -443 -1641 l-17 -65
-11 40 c-19 70 -78 300 -178 690 -53 209 -107 418 -119 465 l-22 85 -51 -160
c-28 -88 -191 -605 -362 -1150 -171 -544 -331 -1054 -356 -1132 l-45 -143
-460 0 c-313 0 -459 3 -459 10 0 6 90 298 201 648 111 350 327 1035 480 1522
154 487 346 1095 427 1353 l147 467 535 -2 534 -3 112 -449z m2310 437 c-3
-10 -78 -268 -166 -573 -89 -305 -197 -676 -240 -825 -80 -274 -484 -1664
-656 -2254 -52 -179 -96 -326 -97 -328 -2 -2 -218 -2 -479 -1 l-475 3 129 485
c71 267 150 568 177 670 27 102 151 570 276 1040 125 470 246 929 270 1020 24
91 80 302 124 468 45 167 81 306 81 308 0 2 239 4 531 4 500 0 530 -1 525 -17z"/>
</g>
</svg>
